<svg version="1.1" xmlns="http://www.w3.org/2000/svg" xmlns:xlink="http://www.w3.org/1999/xlink" width="320.32652" height="104.8864" viewBox="0,0,320.32652,104.8864"><g transform="translate(-79.83675,-138.16264)"><g data-paper-data="{&quot;isPaintingLayer&quot;:true}" fill-rule="nonzero" stroke-linejoin="miter" stroke-miterlimit="10" stroke-dasharray="" stroke-dashoffset="0" style="mix-blend-mode: normal"><path d="M80.58675,149.99602h79.11047" fill="none" stroke="#ffffff" stroke-width="1.5" stroke-linecap="round"/><path d="M101.84032,191.60239v-41.21383h38.96485v41.21383z" fill="none" stroke="#ffffff" stroke-width="1.5" stroke-linecap="butt"/><path d="M156.92052,199.78281h-23.33355v-35.50759h38.5511v-25.36258h-20.29006" fill="none" stroke="#ffffff" stroke-width="1.5" stroke-linecap="round"/><path d="M133.58697,179.49276v-15.21754h15.21754v15.21754z" fill="none" stroke="#ffffff" stroke-width="1.5" stroke-linecap="butt"/><path d="M153.87702,168.33323v-18.26105h18.26105v18.26105z" fill="none" stroke="#ffffff" stroke-width="1.5" stroke-linecap="butt"/><path d="M156.92053,211.95686v-42.60912l15.72479,15.72479l16.23205,-16.23204v43.11636" fill="none" stroke="#ffffff" stroke-width="1.5" stroke-linecap="round"/><path d="M156.92052,221.08737v-30.43508h31.5537v30.43508z" fill="none" stroke="#ffffff" stroke-width="1.5" stroke-linecap="butt"/><path d="M109.2389,182.53627v-24.34807h24.34807v24.34807z" fill="none" stroke="#ffffff" stroke-width="1.5" stroke-linecap="butt"/><path d="M162.34414,216.01486v-20.29006h20.29006v20.29006z" fill="none" stroke="#ffffff" stroke-width="1.5" stroke-linecap="butt"/><path d="M199.89817,145.77691v21.55215" fill="none" stroke="#ffffff" stroke-width="1.5" stroke-linecap="round"/><path d="M199.89817,214.30802v-25.68054" fill="none" stroke="#ffffff" stroke-width="1.5" stroke-linecap="round"/><path d="M210.63197,158.16205v-11.55947" fill="none" stroke="#ffffff" stroke-width="1.5" stroke-linecap="round"/><path d="M208.15494,167.24449h9.08243v28.89866l-13.62365,13.62365" fill="none" stroke="#ffffff" stroke-width="1.5" stroke-linecap="round"/><path d="M268.42928,208.94113h-38.39394l-11.97229,-11.97231" fill="none" stroke="#ffffff" stroke-width="1.5" stroke-linecap="round"/><path d="M234.57657,162.29043v-14.98012" fill="none" stroke="#ffffff" stroke-width="1.5" stroke-linecap="round"/><path d="M206.9754,156.03888v-7.78494h7.78494v7.78494z" fill="none" stroke="#ffffff" stroke-width="1.5" stroke-linecap="butt"/><path d="M244.48468,147.66416v14.98012" fill="none" stroke="#ffffff" stroke-width="1.5" stroke-linecap="round"/><path d="M255.45437,162.29043v-14.98012" fill="none" stroke="#ffffff" stroke-width="1.5" stroke-linecap="round"/><path d="M225.39611,147.42826h38.99905v14.86217h-38.99905z" fill="none" stroke="#ffffff" stroke-width="1.5" stroke-linecap="round"/><path d="M219.36054,167.7163v-26.53958h50.83805v26.53958z" fill="none" stroke="#ffffff" stroke-width="1.5" stroke-linecap="butt"/><path d="M224.5505,173.02422h42.93516" fill="none" stroke="#ffffff" stroke-width="1.5" stroke-linecap="round"/><path d="M224.5505,187.06071v-9.08243h42.93516v9.08243z" fill="none" stroke="#ffffff" stroke-width="1.5" stroke-linecap="butt"/><path d="M244.36672,202.74856v-14.86217l14.44933,14.44932" fill="none" stroke="#ffffff" stroke-width="1.5" stroke-linecap="round"/><path d="M244.36672,187.06071l-14.86217,14.86217" fill="none" stroke="#ffffff" stroke-width="1.5" stroke-linecap="round"/><path d="M251.79781,194.49179l6.19257,-6.19257" fill="none" stroke="#ffffff" stroke-width="1.5" stroke-linecap="round"/><path d="M284.11713,163.11611v-11.55947" fill="none" stroke="#ffffff" stroke-width="1.5" stroke-linecap="round"/><path d="M281.6401,172.19854h9.08243v28.89866l-13.62365,13.62365" fill="none" stroke="#ffffff" stroke-width="1.5" stroke-linecap="round"/><path d="M280.46057,160.99294v-7.78494h7.78494v7.78494z" fill="none" stroke="#ffffff" stroke-width="1.5" stroke-linecap="butt"/><path d="M340.26309,213.06951h-38.39394l-11.97229,-11.97231" fill="none" stroke="#ffffff" stroke-width="1.5" stroke-linecap="round"/><path d="M337.90041,154.47665h-37.9811" fill="none" stroke="#ffffff" stroke-width="1.5" stroke-linecap="round"/><path d="M310.65309,147.04557v23.9446" fill="none" stroke="#ffffff" stroke-width="1.5" stroke-linecap="round"/><path d="M323.03823,147.04557v24.77028" fill="none" stroke="#ffffff" stroke-width="1.5" stroke-linecap="round"/><path d="M301.57066,172.64152v-14.03649h30.55001v14.03649z" fill="none" stroke="#ffffff" stroke-width="1.5" stroke-linecap="butt"/><path d="M301.57066,165.21044h30.55001" fill="none" stroke="#ffffff" stroke-width="1.5" stroke-linecap="round"/><path d="M304.04769,204.84289v-26.42163h26.42163v26.42163z" fill="none" stroke="#ffffff" stroke-width="1.5" stroke-linecap="butt"/><path d="M329.64365,191.63207h-25.59596" fill="none" stroke="#ffffff" stroke-width="1.5" stroke-linecap="round"/><path d="M307.35039,201.54018v-19.81622h19.81622v19.81622z" fill="none" stroke="#ffffff" stroke-width="1.5" stroke-linecap="butt"/><path d="M349.45987,165.35693h45.41218" fill="none" stroke="#ffffff" stroke-width="1.5" stroke-linecap="round"/><path d="M344.91865,183.81478v-11.2798h54.49462v13.33067" fill="none" stroke="#ffffff" stroke-width="1.5" stroke-linecap="round"/><path d="M370.92744,185.86566v-20.70849" fill="none" stroke="#ffffff" stroke-width="1.5" stroke-linecap="round"/><path d="M363.49636,175.61129h-8.25676" fill="none" stroke="#ffffff" stroke-width="1.5" stroke-linecap="round"/><path d="M363.49636,183.81478h-8.25676" fill="none" stroke="#ffffff" stroke-width="1.5" stroke-linecap="round"/><path d="M387.44097,175.39821h-8.25676" fill="none" stroke="#ffffff" stroke-width="1.5" stroke-linecap="round"/><path d="M387.44097,183.80146h-8.25676" fill="none" stroke="#ffffff" stroke-width="1.5" stroke-linecap="round"/><path d="M388.26664,192.01827h-33.02704" fill="none" stroke="#ffffff" stroke-width="1.5" stroke-linecap="round"/><path d="M353.58825,199.19633h37.15542" fill="none" stroke="#ffffff" stroke-width="1.5" stroke-linecap="round"/><path d="M366.57745,219.70506v-20.10921" fill="none" stroke="#ffffff" stroke-width="1.5" stroke-linecap="round"/><path d="M375.8815,200.22177v19.48329" fill="none" stroke="#ffffff" stroke-width="1.5" stroke-linecap="round"/><path d="M397.34908,219.70506h-48.71489" fill="none" stroke="#ffffff" stroke-width="1.5" stroke-linecap="round"/><path d="M356.89095,212.527l-6.60541,-8.20349" fill="none" stroke="#ffffff" stroke-width="1.5" stroke-linecap="round"/><path d="M392.39502,205.34895l-7.01825,8.71621" fill="none" stroke="#ffffff" stroke-width="1.5" stroke-linecap="round"/><path d="M362.67068,215.60331v-11.2798h16.92636v11.2798z" fill="none" stroke="#ffffff" stroke-width="1.5" stroke-linecap="butt"/><path d="M349.04703,187.18407v-26.51485h47.06353v26.51485z" fill="none" stroke="#ffffff" stroke-width="1.5" stroke-linecap="butt"/><text transform="translate(134.53476,240.1455) scale(0.58589,0.27263)" font-size="40" xml:space="preserve" fill="#ffffff" fill-rule="nonzero" stroke="none" stroke-width="1" stroke-linecap="butt" stroke-linejoin="miter" stroke-miterlimit="10" stroke-dasharray="" stroke-dashoffset="0" font-family="Serif" font-weight="normal" text-anchor="start" style="mix-blend-mode: normal"><tspan x="0" dy="0">Team:GenSouRei</tspan></text></g></g></svg>